HIERARCHY
ROOT hip
{
	OFFSET 0.000000 0.000000 0.000000
	CHANNELS 6 Xposition Yposition Zposition Zrotation Yrotation Xrotation 
	JOINT lhipjoint
	{
		OFFSET 0.000000 0.000000 0.000000
		CHANNELS 3 Zrotation Yrotation Xrotation
		JOINT lfemur
		{
			OFFSET 1.363060 -1.794630 0.839290
			CHANNELS 3 Zrotation Yrotation Xrotation
			JOINT ltibia
			{
				OFFSET 2.448110 -6.726130 0.000000
				CHANNELS 3 Zrotation Yrotation Xrotation
				JOINT lfoot
				{
					OFFSET 2.562200 -7.039590 0.000000
					CHANNELS 3 Zrotation Yrotation Xrotation
					JOINT ltoes
					{
						OFFSET 0.157640 -0.433110 2.322550
						CHANNELS 3 Zrotation Yrotation Xrotation
						End Site
						{
							OFFSET 0.000000 0.000000 0.000000
						}
					}
				}
			}
		}
	}
	JOINT rhipjoint
	{
		OFFSET 0.000000 0.000000 0.000000
		CHANNELS 3 Zrotation Yrotation Xrotation
		JOINT rfemur
		{
			OFFSET -1.305520 -1.794630 0.839290
			CHANNELS 3 Zrotation Yrotation Xrotation
			JOINT rtibia
			{
				OFFSET -2.542530 -6.985550 0.000000
				CHANNELS 3 Zrotation Yrotation Xrotation
				JOINT rfoot
				{
					OFFSET -2.568260 -7.056230 0.000000
					CHANNELS 3 Zrotation Yrotation Xrotation
					JOINT rtoes
					{
						OFFSET -0.164730 -0.452590 2.363150
						CHANNELS 3 Zrotation Yrotation Xrotation
						End Site
						{
							OFFSET 0.000000 0.000000 0.000000
						}
					}
				}
			}
		}
	}
	JOINT lowerback
	{
		OFFSET 0.000000 0.000000 0.000000
		CHANNELS 3 Zrotation Yrotation Xrotation
		JOINT upperback
		{
			OFFSET 0.028270 2.035590 -0.193380
			CHANNELS 3 Zrotation Yrotation Xrotation
			JOINT thorax
			{
				OFFSET 0.056720 2.048850 -0.042750
				CHANNELS 3 Zrotation Yrotation Xrotation
				JOINT lowerneck
				{
					OFFSET 0.000000 0.000000 0.000000
					CHANNELS 3 Zrotation Yrotation Xrotation
					JOINT upperneck
					{
						OFFSET -0.054170 1.746240 0.172020
						CHANNELS 3 Zrotation Yrotation Xrotation
						JOINT head
						{
							OFFSET 0.104070 1.761360 -0.123970
							CHANNELS 3 Zrotation Yrotation Xrotation
							End Site
							{
								OFFSET 0.000000 0.000000 0.000000
							}
						}
					}
				}
				JOINT lclavicle
				{
					OFFSET 0.000000 0.000000 0.000000
					CHANNELS 3 Zrotation Yrotation Xrotation
					JOINT lhumerus
					{
						OFFSET 3.362410 1.200890 -0.311210
						CHANNELS 3 Zrotation Yrotation Xrotation
						JOINT lradius
						{
							OFFSET 4.983000 -0.000000 -0.000000
							CHANNELS 3 Zrotation Yrotation Xrotation
							JOINT lwrist
							{
								OFFSET 3.483560 -0.000000 -0.000000
								CHANNELS 3 Zrotation Yrotation Xrotation
								JOINT lhand
								{
									OFFSET 0.000000 0.000000 0.000000
									CHANNELS 3 Zrotation Yrotation Xrotation
									JOINT lfingers
									{
										OFFSET 0.715260 -0.000000 -0.000000
										CHANNELS 3 Zrotation Yrotation Xrotation
										End Site
										{
											OFFSET 0.000000 0.000000 0.000000
										}
									}
								}
								JOINT lthumb
								{
									OFFSET 0.000000 0.000000 0.000000
									CHANNELS 3 Zrotation Yrotation Xrotation
									End Site
									{
										OFFSET 0.000000 0.000000 0.000000
									}
								}
							}
						}
					}
				}
				JOINT rclavicle
				{
					OFFSET 0.000000 0.000000 0.000000
					CHANNELS 3 Zrotation Yrotation Xrotation
					JOINT rhumerus
					{
						OFFSET -3.136600 1.374050 -0.404650
						CHANNELS 3 Zrotation Yrotation Xrotation
						JOINT rradius
						{
							OFFSET -5.241900 -0.000000 -0.000000
							CHANNELS 3 Zrotation Yrotation Xrotation
							JOINT rwrist
							{
								OFFSET -3.444170 -0.000000 -0.000000
								CHANNELS 3 Zrotation Yrotation Xrotation
								JOINT rhand
								{
									OFFSET 0.000000 0.000000 0.000000
									CHANNELS 3 Zrotation Yrotation Xrotation
									JOINT rfingers
									{
										OFFSET -0.622530 -0.000000 -0.000000
										CHANNELS 3 Zrotation Yrotation Xrotation
										End Site
										{
											OFFSET 0.000000 0.000000 0.000000
										}
									}
								}
								JOINT rthumb
								{
									OFFSET 0.000000 0.000000 0.000000
									CHANNELS 3 Zrotation Yrotation Xrotation
									End Site
									{
										OFFSET 0.000000 0.000000 0.000000
									}
								}
							}
						}
					}
				}
			}
		}
	}
}
MOTION
Frames: 10
Frame Time: 0.008333
-0.372735 16.756221 2.441721 160.911940 4.281540 -169.599848 -6.009906 -2.272554 -1.514407 -24.299433 -1.509003 -31.888208 6.324038 13.175845 41.840474 -2.944234 -34.396351 -0.447588 0.990100 -6.333000 -17.753700 6.389026 1.670594 -0.295806 -16.077221 16.603476 -28.512412 -7.706946 -14.633763 50.025371 -1.806255 7.689958 -23.565927 -1.648400 8.091700 -22.992800 8.136069 -8.161282 11.858561 1.745531 -8.193572 -2.412916 -8.242256 -2.226705 10.464943 1.017373 12.941294 -10.386898 -15.245235 22.745330 -2.027578 -7.505400 11.286800 1.320400 -6.232336 -3.077654 3.210040 -67.048843 11.203096 54.362193 65.271105 -58.125043 -35.436856 0.228837 2.053555 15.784735 34.827234 -10.584283 -9.035800 -7.125000 0.000000 0.000000 5.353200 14.221700 -3.891300 7.409583 4.817493 4.184805 71.443314 -12.993855 29.381371 -32.044386 48.678302 -10.789114 -0.171700 -2.331880 -11.116071 -10.620098 12.947501 -2.665800 7.125000 0.000000 0.000000 11.843700 -14.706300 8.638800 
-0.384290 16.775659 2.435630 161.793801 4.804723 -169.654360 -5.961308 -2.206509 -1.501645 -24.059632 -2.257243 -31.675335 6.375381 13.212234 42.052198 -2.686001 -33.725509 -1.389101 1.034100 -6.468000 -18.148400 6.176110 1.611731 -0.332696 -14.859179 16.855678 -28.425745 -7.688406 -14.511334 49.575910 -1.757785 8.113314 -23.155528 -1.558000 7.877400 -22.342400 7.803956 -7.929566 11.963799 1.755551 -7.885915 -2.420982 -7.828891 -2.174256 10.357157 1.029402 12.836127 -9.934304 -14.934260 22.402611 -1.773010 -7.500200 11.121700 1.216900 -6.178605 -3.087041 3.231497 -67.362073 11.307888 54.186518 64.413520 -57.985657 -34.750434 0.226212 2.053480 15.656240 34.452372 -10.546967 -8.880800 -7.125000 0.000000 0.000000 5.106300 14.342200 -3.697200 7.464263 4.778771 4.218656 71.122491 -12.597731 29.428402 -31.857319 48.500361 -10.710524 -0.176245 -2.313703 -10.828295 -10.773830 12.945190 -2.707300 7.125000 0.000000 0.000000 11.734500 -14.711900 8.554100 
-0.395040 16.789723 2.430524 162.615134 5.351817 -169.716739 -5.919209 -2.140735 -1.494781 -23.786592 -3.131805 -31.367868 6.420979 13.245835 42.242043 -2.301413 -32.606979 -2.682929 1.049900 -6.515600 -18.287900 5.988318 1.557697 -0.359993 -13.749126 17.059609 -28.386837 -7.678680 -14.399238 49.190533 -1.708290 8.599120 -22.705777 -1.468000 7.656700 -21.676100 7.368856 -7.670654 12.046447 1.761500 -7.548222 -2.427035 -7.377975 -2.116121 10.260600 1.064377 12.709399 -9.407703 -14.630306 22.023314 -1.526703 -7.516500 10.943200 1.091500 -6.121617 -3.095324 3.257670 -67.628855 11.393127 54.060973 63.574192 -57.844588 -34.081887 0.221839 2.053686 15.496674 34.142836 -10.503447 -8.745900 -7.125000 0.000000 0.000000 4.903700 14.455700 -3.537600 7.521388 4.732550 4.256361 70.790145 -12.158445 29.443137 -31.531598 48.228455 -10.564936 -0.187409 -2.289303 -10.495299 -10.911538 13.025837 -2.756600 7.125000 0.000000 0.000000 11.636900 -14.643600 8.497200 
-0.405699 16.799487 2.427389 163.446160 5.861304 -169.796437 -5.875268 -2.081121 -1.497348 -23.408547 -4.171215 -30.920335 6.464596 13.280173 42.426741 -1.811205 -30.978966 -4.227700 1.054500 -6.529400 -18.328500 5.814915 1.508386 -0.381583 -12.628167 17.149406 -28.367083 -7.679245 -14.305952 48.863938 -1.660832 9.146522 -22.258831 -1.395300 7.472800 -21.123900 6.987176 -7.359093 12.119469 1.746488 -7.148500 -2.428582 -7.068972 -2.011405 10.172664 1.290958 12.517301 -8.901504 -14.277365 21.537151 -1.173531 -7.543800 10.705100 1.010500 -6.065479 -3.092019 3.280781 -67.615347 11.511556 54.127323 62.853601 -57.717429 -33.520226 0.216369 2.045615 15.314711 33.900528 -10.461341 -8.629300 -7.125000 0.000000 0.000000 4.745400 14.564700 -3.411500 7.560647 4.698250 4.291859 70.699396 -11.652235 29.222859 -31.056368 47.862079 -10.340990 -0.197746 -2.271175 -10.077207 -10.980436 13.100673 -2.788400 7.125000 0.000000 0.000000 11.583500 -14.579000 8.472800 
-0.415911 16.804951 2.425597 164.333558 6.385711 -169.822041 -5.836858 -2.012956 -1.503252 -22.874462 -5.363070 -30.426541 6.508442 13.317935 42.617981 -1.156052 -28.533743 -6.444071 1.211600 -6.982600 -19.663900 5.640122 1.441783 -0.388285 -11.454711 17.217641 -28.477269 -7.703566 -14.211580 48.607815 -1.610876 9.693524 -21.765238 -1.330600 7.304600 -20.621100 6.628138 -7.036534 12.128070 1.747335 -6.737626 -2.433181 -6.682010 -1.906337 10.096476 1.428035 12.297356 -8.383798 -13.898893 21.008312 -0.824671 -7.551100 10.453700 0.899800 -6.006934 -3.089906 3.305079 -67.615739 11.658104 54.206042 62.277040 -57.618769 -33.066972 0.211906 2.041257 15.065507 33.689613 -10.455994 -8.550700 -7.125000 0.000000 0.000000 4.601000 14.617600 -3.301800 7.607906 4.652171 4.328764 70.500598 -11.078664 29.068671 -30.493258 47.416835 -10.073163 -0.197567 -2.245885 -9.776404 -11.003122 13.048373 -2.785400 7.125000 0.000000 0.000000 11.559500 -14.651200 8.436300 
-0.425765 16.809251 2.425239 165.347714 6.900154 -169.742625 -5.801365 -1.932039 -1.509907 -22.125195 -6.719639 -29.958045 6.557662 13.356158 42.832337 -0.567383 -25.744487 -8.327901 1.374400 -7.419100 -20.963100 5.452665 1.344330 -0.377129 -10.145077 17.325723 -28.737098 -7.756681 -14.111010 48.417734 -1.564557 10.221836 -21.260709 -1.281000 7.172600 -20.227700 6.405415 -6.696619 12.042335 1.760861 -6.318448 -2.451659 -6.305704 -1.794481 9.989584 1.556524 12.065424 -7.818217 -13.503875 20.453568 -0.473934 -7.553100 10.194100 0.769600 -5.942412 -3.090487 3.328512 -67.606798 11.812086 54.321759 61.678242 -57.511907 -32.599516 0.203727 2.038165 14.776417 33.573869 -10.437044 -8.496500 -7.125000 0.000000 0.000000 4.523900 14.667000 -3.241300 7.654498 4.609729 4.363799 70.286907 -10.482646 28.912037 -29.831192 46.893916 -9.757265 -0.197538 -2.214893 -9.468305 -10.968059 12.988428 -2.764500 7.125000 0.000000 0.000000 11.573800 -14.741300 8.424400 
-0.433469 16.809788 2.425687 166.426246 7.446861 -169.664044 -5.766399 -1.851202 -1.514193 -21.269474 -8.026138 -29.491924 6.606016 13.401339 43.057872 -0.096888 -22.802665 -9.785971 1.515800 -7.774900 -22.032400 5.262456 1.243546 -0.360822 -8.750083 17.431253 -29.030382 -7.829747 -14.021369 48.296800 -1.518499 10.805158 -20.720446 -1.224700 7.019000 -19.771700 6.202513 -6.339197 11.972407 1.781686 -5.877466 -2.480515 -5.880866 -1.677606 9.824607 1.611693 11.806224 -7.247590 -13.034721 19.846821 -0.038657 -7.507200 9.913700 0.643900 -5.876163 -3.101968 3.350860 -67.600674 11.974703 54.473098 60.998591 -57.384684 -32.070397 0.199020 2.035926 14.416956 33.514068 -10.538124 -8.538100 -7.125000 0.000000 0.000000 4.464900 14.561900 -3.208800 7.705059 4.573154 4.394714 70.010660 -9.926398 28.811650 -29.147762 46.339519 -9.435199 -0.193303 -2.184051 -9.264763 -10.972202 12.880942 -2.745700 7.125000 0.000000 0.000000 11.563000 -14.876000 8.382200 
-0.439650 16.805847 2.426045 167.493456 8.022930 -169.580709 -5.737457 -1.775554 -1.520033 -20.385325 -9.226638 -29.056934 6.652275 13.452346 43.288318 0.235721 -19.944111 -10.790044 1.538800 -7.831000 -22.202000 5.092340 1.148871 -0.338303 -7.384688 17.457470 -29.385819 -7.917112 -13.948622 48.262281 -1.472331 11.486345 -20.142654 -1.183700 6.904600 -19.433200 5.948281 -5.967962 11.870682 1.803259 -5.418626 -2.504675 -5.414333 -1.551699 9.696451 1.598154 11.516699 -6.741987 -12.536481 19.206402 0.412379 -7.427900 9.618600 0.521000 -5.814337 -3.112026 3.372575 -67.596820 12.065668 54.654585 60.253574 -57.239405 -31.492780 0.193145 2.034419 14.000516 33.509025 -10.672396 -8.619400 -7.125000 0.000000 0.000000 4.437900 14.406300 -3.204000 7.758354 4.527090 4.423179 69.692260 -9.353940 28.743403 -28.465918 45.779327 -9.119013 -0.195183 -2.149471 -9.104959 -10.970412 12.860991 -2.738000 7.125000 0.000000 0.000000 11.559300 -14.929200 8.365900 
-0.444397 16.795187 2.426941 168.483932 8.622395 -169.575937 -5.709042 -1.718714 -1.522163 -19.587438 -10.042711 -28.674852 6.689507 13.512475 43.499409 0.436523 -17.479916 -11.391156 1.405000 -7.497800 -21.198800 4.947355 1.079628 -0.321379 -6.118114 17.398509 -29.706787 -8.014977 -13.908715 48.330304 -1.421731 12.324575 -19.518280 -1.112600 6.701300 -18.833400 5.576431 -5.594951 11.810927 1.818599 -4.949858 -2.519418 -4.900243 -1.420047 9.590853 1.456306 11.219780 -6.291952 -11.917246 18.535692 0.921633 -7.267400 9.309900 0.395300 -5.763564 -3.130127 3.396792 -67.572448 12.046331 54.870785 59.409946 -57.060437 -30.839906 0.187397 2.030903 13.536411 33.465152 -10.828570 -8.699300 -7.125000 0.000000 0.000000 4.380700 14.235400 -3.178400 7.807365 4.467516 4.448724 69.368296 -8.791404 28.651006 -27.808040 45.231588 -8.821553 -0.206618 -2.113004 -8.872164 -11.001170 12.965182 -2.759000 7.125000 0.000000 0.000000 11.535600 -14.859300 8.365700 
-0.449414 16.777182 2.429180 169.315051 9.213523 -169.680731 -5.683479 -1.680769 -1.526324 -18.963250 -10.632294 -28.242774 6.718577 13.580307 43.687612 0.561493 -15.410202 -11.832534 1.180700 -6.896300 -19.408500 4.843069 1.044304 -0.308588 -5.058982 17.189111 -29.979503 -8.116540 -13.907919 48.504037 -1.364214 13.298796 -18.873741 -1.043200 6.495400 -18.228800 5.019805 -5.242570 11.806295 1.820396 -4.501009 -2.522741 -4.355516 -1.299036 9.527193 1.202603 10.925835 -6.000171 -11.134231 17.853729 1.527588 -6.999200 8.989500 0.309800 -5.726321 -3.154151 3.418920 -67.544053 11.931517 55.065653 58.532007 -56.859305 -30.164231 0.182284 2.026359 13.046178 33.381076 -11.001942 -8.774800 -7.125000 0.000000 0.000000 4.293300 14.053400 -3.131300 7.845478 4.394518 4.467910 69.060218 -8.211896 28.589441 -27.187187 44.709860 -8.543103 -0.226384 -2.075476 -8.640960 -11.027627 13.191857 -2.798200 7.125000 0.000000 0.000000 11.518200 -14.670400 8.400000 
